# xmcd
#
# Track frame offsets: 
#        157
#        39001
#        96683
#        119410
#        142174
#        186904
#        213969
#        248980
#        270617
#
# Disc length: 3922 seconds
#
# Revision: 0
# Processed by: cddbd v1.5.2PL0 Copyright (c) Steve Scherf et al.
# Submitted via: ExactAudioCopy v0.99pb4
#
DISCID=880f5009
DTITLE=Trudy's blues - Trudy Lynn
DYEAR=2002
DGENRE=Blues
TTITLE0=Down Home Blues
TTITLE1=Trudy's Blues
TTITLE2=Evil Gal Blues
TTITLE3=Every Day I Have The Blues
TTITLE4=Steal Away
TTITLE5=I Just Want A Little Bit
TTITLE6=Dr Feelgood
TTITLE7=You Can Have My Husband
TTITLE8=29 Ways
EXTD=
EXTT0=
EXTT1=
EXTT2=
EXTT3=
EXTT4=
EXTT5=
EXTT6=
EXTT7=
EXTT8=
PLAYORDER=
